<?xml version="1.0" standalone="no"?>
<!DOCTYPE svg PUBLIC "-//W3C//DTD SVG 20010904//EN"
 "http://www.w3.org/TR/2001/REC-SVG-20010904/DTD/svg10.dtd">
<svg version="1.0" xmlns="http://www.w3.org/2000/svg"
 width="567.000000pt" height="567.000000pt" viewBox="0 0 567.000000 567.000000"
 preserveAspectRatio="xMidYMid meet">
<metadata>
Created by potrace 1.14, written by Peter Selinger 2001-2017
</metadata>
<g transform="translate(0.000000,567.000000) scale(0.100000,-0.100000)"
fill="#000000" stroke="none">
<path d="M4266 5493 c-1 -2 -328 -5 -727 -8 -2473 -17 -2707 -20 -2717 -30 -8
-7 -9 -86 -16 -830 -4 -346 -9 -790 -11 -985 -3 -195 -7 -524 -9 -730 -3 -206
-8 -710 -11 -1120 -4 -410 -8 -911 -10 -1114 -3 -352 1 -416 25 -440 10 -10
699 -19 725 -9 7 2 11 417 12 1214 1 734 5 1215 11 1221 5 5 92 11 193 13 101
2 279 7 396 10 l211 7 20 -44 c11 -24 61 -135 112 -248 50 -113 100 -223 110
-245 10 -22 59 -132 110 -245 50 -113 100 -223 111 -246 10 -22 19 -43 19 -46
0 -4 16 -41 36 -84 19 -42 46 -106 60 -143 14 -36 31 -75 38 -86 7 -11 39 -76
70 -145 77 -169 77 -167 141 -315 69 -159 73 -168 124 -278 23 -49 41 -90 41
-92 0 -6 58 -136 70 -157 6 -10 10 -25 10 -33 0 -34 38 -55 98 -55 31 0 64 -1
72 -1 8 0 42 1 75 1 33 1 119 1 190 1 72 0 137 -1 145 0 21 0 125 -1 185 -2
28 -1 79 0 115 0 36 1 74 1 85 1 11 0 43 1 70 1 28 1 57 1 65 0 94 -4 381 -1
390 4 8 5 9 133 6 453 -3 246 -8 654 -11 907 -3 253 -7 702 -10 998 -2 295 -7
542 -10 547 -3 5 -1 11 5 15 6 4 8 11 4 16 -3 5 -7 121 -9 257 -7 426 -16
1292 -17 1671 -2 292 -5 366 -16 377 -9 9 -39 14 -85 15 -167 3 -489 4 -491 2z
m-180 -872 c7 -1 10 -79 11 -238 0 -131 4 -420 8 -643 4 -223 8 -517 10 -655
6 -376 16 -1113 20 -1350 3 -206 7 -619 6 -662 -1 -21 -3 -22 -152 -18 -132 3
-152 5 -164 21 -19 26 -39 70 -122 264 -25 58 -62 143 -83 190 -49 110 -161
366 -240 550 -34 80 -68 159 -75 175 -7 17 -41 95 -75 175 -33 80 -75 178 -92
218 -17 40 -28 75 -24 79 7 7 39 8 428 13 136 2 252 6 258 10 9 5 11 93 8 336
l-4 329 -130 0 c-71 1 -133 -2 -139 -4 -17 -9 -55 -8 -61 1 -3 5 -12 4 -20 -3
-11 -9 -14 -9 -14 0 0 9 -5 9 -21 0 -16 -8 -20 -8 -14 1 6 9 3 9 -13 1 -15 -8
-21 -8 -24 1 -3 8 -10 8 -27 -2 -19 -10 -22 -10 -16 1 6 9 3 10 -11 5 -21 -9
-25 -9 -72 -2 -24 4 -31 2 -25 -7 5 -9 4 -9 -8 0 -9 7 -20 8 -29 3 -8 -5 -19
-6 -25 -2 -5 3 -81 7 -167 7 -137 1 -158 -1 -158 -14 -1 -19 -40 56 -40 76 0
7 -4 13 -10 13 -5 0 -10 9 -10 20 0 11 -4 20 -10 20 -5 0 -9 3 -8 8 1 4 -13
38 -30 76 -18 38 -32 71 -32 73 0 2 -13 32 -29 66 -16 34 -66 148 -111 252
-45 105 -90 208 -100 230 -10 22 -30 69 -45 105 -15 36 -35 83 -45 105 -9 22
-27 66 -39 98 l-21 57 103 1 c56 1 172 3 257 4 85 2 391 6 679 9 288 3 525 7
527 8 2 3 198 2 220 -1z m-2506 -228 c18 -38 46 -99 62 -138 16 -38 42 -98 59
-133 16 -35 29 -65 29 -68 0 -3 16 -40 36 -82 19 -42 52 -113 71 -157 20 -44
53 -116 74 -160 64 -140 110 -247 106 -252 -4 -3 -382 -6 -463 -4 l-21 1 -2
530 c-1 319 2 530 7 530 5 0 24 -30 42 -67z"/>
<path d="M3464 4208 c-44 -21 -68 -27 -92 -23 -30 6 -33 4 -27 -14 8 -27 -10
-35 -37 -17 -30 19 -132 15 -176 -8 -132 -68 -206 -317 -145 -485 23 -64 85
-152 134 -188 51 -39 95 -49 144 -33 44 14 170 5 200 -14 16 -11 25 -11 50 0
16 7 52 21 78 30 97 35 180 148 192 264 10 87 12 103 22 130 13 33 9 83 -13
161 -53 198 -177 272 -330 197z"/>
</g>
</svg>
